# xmcd
#
# Track frame offsets: 
#        150
#        24225
#        45920
#        62343
#        76413
#        91798
#        102695
#        121730
#        140518
#        153835
#        167393
#        182510
#        202328
#        223688
#
# Disc length: 3259 seconds
#
# Revision: 0
# Processed by: cddbd v1.5.2PL0 Copyright (c) Steve Scherf et al.
# Submitted via: ExactAudioCopy v0.99pb3
#
DISCID=ac0cb90e
DTITLE=Various Artist - Canonazos Bailables volume 31
DYEAR=1991
DGENRE=Salsa
TTITLE0=Te Quiero Mas - Joe Arroyo Y La Verdad
TTITLE1=Sopa De Caracol - Banda Bianca
TTITLE2=Mi Corazon - Los Melodicos
TTITLE3=Mete Y Saca - Banda La Bocana
TTITLE4=Te Ves Buena - Afrosound
TTITLE5=Bacano - Los Tupamaros
TTITLE6=Cuando Aparaezca El Amor - La Sabrosura
TTITLE7=Echao Pa Lante - Joe Arroyo Y La Verdad
TTITLE8=Enamorao - Los Tupamaros
TTITLE9=Mar De Emociones - Afrosound
TTITLE10=Caldo De Camaron - La Sonora Dinamita
TTITLE11=Nunca Fui Tan Feliz - The Latin Brothers
TTITLE12=Tu Pum Pum - Carmelo Caliente
TTITLE13=Solo Puedo Quererte - Los Chiches Vallenatos
EXTD=
EXTT0=
EXTT1=
EXTT2=
EXTT3=
EXTT4=
EXTT5=
EXTT6=
EXTT7=
EXTT8=
EXTT9=
EXTT10=
EXTT11=
EXTT12=
EXTT13=
PLAYORDER=
